<?xml version="1.0" encoding="utf-8"?>
<!-- Generator: Adobe Illustrator 19.0.0, SVG Export Plug-In . SVG Version: 6.00 Build 0)  -->
<svg version="1.1" id="Capa_1" xmlns="http://www.w3.org/2000/svg" xmlns:xlink="http://www.w3.org/1999/xlink" x="0px" y="0px"
	 viewBox="0 0 612 733" style="enable-background:new 0 0 612 733;" xml:space="preserve">
<style type="text/css">
	.st0{fill:#FFFFFF;stroke:#000000;stroke-width:12;stroke-miterlimit:10;}
	.st1{fill:none;stroke:#000000;stroke-width:12;stroke-miterlimit:10;}
	.st2{fill:#5A9F27;}
</style>
<g id="XMLID_16_">
	<path id="XMLID_21_" d="M382.2,157.8c-0.8-6.7-1.1-15.1-5.2-19.4c-12.9-13.6-27.3-25.8-41.4-38.3c-1.9-1.7-5-2.7-7.6-2.7
		c-30.7-0.2-61.4-0.2-92.1,0c-2.5,0-5.6,1-7.5,2.7c-13.7,11.7-27.3,23.6-40.6,35.8c-2.8,2.6-5.1,6.5-5.9,10.2
		c-4.9,21.8-6.1,43.9-0.6,65.6c7.6,30.1,25.9,54.2,45.6,77.3c3.2,3.8,5.3,1,7.5-1.3c9-9.6,17.9-19.2,26.9-28.8
		c7.2-7.6,14.4-15.2,21.8-23c15.6,19.1,30.5,37.4,45.8,56.2C367,258.7,388.2,204.8,382.2,157.8z M318.6,195.9
		c-11.2,13-22.7,25.8-34.8,39.4c-6.9-7.7-13.5-14.7-19.7-21.9c-7.9-9.1-15.4-18.4-23.4-27.4c-15.2-17.1-17.1-37.7-16-59.2
		c0.3-5,1.2-10,1.9-15.1c0.6-0.2,1.2-0.4,1.8-0.6c4.8,8.7,9.3,17.6,14.5,26.1c1.4,2.3,4.8,4.6,7.4,4.6c22.9,0.4,45.9,0.2,69.4,0.2
		c3.6-11.3,7.2-22.5,11.2-35C342.3,141.7,344.7,165.6,318.6,195.9z"/>
	<path id="XMLID_7_" d="M295.4,287.1c-0.1,5.5-6,11.4-11.5,11.4c-6.2,0-11.8-5.7-11.5-11.9c0.2-5.4,6.5-11.5,11.6-11.3
		C289.5,275.7,295.5,281.9,295.4,287.1z"/>
	<g id="XMLID_17_">
		<path id="XMLID_6_" d="M108,553.5V183.2c0-10.2,8.3-19.2,18.5-19.2H167v-25h-43.3c-23,0-41.7,18.3-41.7,41.4v376.9
			c0,23,18.7,41.7,41.7,41.7H213v-27h-86.5C116.3,572,108,563.6,108,553.5z"/>
		<path id="XMLID_5_" d="M438.7,139H401v25h34.4c10.2,0,18.6,9,18.6,19.2v370.3c0,10.2-8.4,18.5-18.6,18.5H260l0.4-287.1L232,320.7
			V599h28l0,0h178.7c23,0,41.3-18.7,41.3-41.7V180.4C480,157.3,461.8,139,438.7,139z"/>
	</g>
</g>
<path id="XMLID_4_" class="st0" d="M426.5,535.7l30.2-24L561,633.9c0,0,1.5,6.2-5.4,13.9c-7,7.7-28.6,19.3-28.6,19.3
	s-7.7,2.3-12.4-3.9C510,657.1,426.5,535.7,426.5,535.7z"/>
<path id="XMLID_3_" class="st0" d="M465.5,426c0,25.9-17,53.6-28.3,66.4l16,16.5l-29.8,22.7l-13.8-18.4
	c-10.7,10.8-35.9,14.5-45.7,14.5c-56.2,0-101.7-45.5-101.7-101.7s45.5-101.7,101.7-101.7S465.5,369.9,465.5,426z"/>
<circle id="XMLID_2_" class="st0" cx="363.2" cy="422.3" r="76.3"/>
<path id="XMLID_1_" class="st1" d="M329.5,372.5c0,0-46.4,29.4-12.4,86.1"/>
<path id="XMLID_28_" class="st2" d="M309.4,434c0,0,22.6,12,39.6,23c0,0,36-67.6,103-103.3c0,0-69,70-96,132.2
	C356,485.9,326.7,454,309.4,434z"/>
</svg>
