<svg xmlns="http://www.w3.org/2000/svg" viewBox="852 758.944 22.667 13.222">
  <defs>
    <style>
      .cls-1 {
        fill: #fff;
        fill-rule: evenodd;
      }
    </style>
  </defs>
  <path id="Google_" data-name="Google +" class="cls-1" d="M6.611,10.667v2.267h3.749a3.571,3.571,0,0,1-3.749,2.852,4.175,4.175,0,0,1,0-8.349,3.72,3.72,0,0,1,2.635,1.02l1.794-1.728A6.337,6.337,0,0,0,6.611,5a6.611,6.611,0,1,0,0,13.222,6.1,6.1,0,0,0,6.348-6.46,6.075,6.075,0,0,0-.1-1.1H6.611Zm0,0,16.056,1.889H19.833v2.833H17.945V12.556H15.111V10.667h2.833V7.833h1.889v2.833h2.833v1.889Z" transform="translate(852 753.944)"/>
</svg>
