<svg xmlns="http://www.w3.org/2000/svg" viewBox="9723.276 486.796 30 30">
  <defs>
    <style>
      .cls-1 {
        fill: #6e6e6e;
      }
    </style>
  </defs>
  <g id="icon-p3" transform="translate(9723.276 486.796)">
    <g id="XMLID_31_">
      <path id="XMLID_32_" class="cls-1" d="M24.9,26.4H1.5A1.485,1.485,0,0,1,0,24.9V1.5A1.485,1.485,0,0,1,1.5,0H24.9a1.485,1.485,0,0,1,1.5,1.5V24.9A1.485,1.485,0,0,1,24.9,26.4ZM1.5,1.2a.283.283,0,0,0-.3.3V24.9a.283.283,0,0,0,.3.3H24.9a.283.283,0,0,0,.3-.3V1.5a.283.283,0,0,0-.3-.3Z"/>
    </g>
    <g id="XMLID_29_" transform="translate(3.6 3.6)">
      <path id="XMLID_30_" class="cls-1" d="M30.9,32.4H7.5A1.485,1.485,0,0,1,6,30.9V28.2H7.2v2.7a.283.283,0,0,0,.3.3H30.9a.283.283,0,0,0,.3-.3V7.5a.283.283,0,0,0-.3-.3H28.2V6h2.7a1.485,1.485,0,0,1,1.5,1.5V30.9A1.485,1.485,0,0,1,30.9,32.4Z" transform="translate(-6 -6)"/>
    </g>
    <g id="XMLID_27_" transform="translate(12.6 6.96)">
      <path id="XMLID_28_" class="cls-1" d="M21.6,24.08a.567.567,0,0,1-.6-.6V12.2a.6.6,0,0,1,1.2,0V23.48A.6.6,0,0,1,21.6,24.08Z" transform="translate(-21 -11.6)"/>
    </g>
    <g id="XMLID_25_" transform="translate(6.96 12.6)">
      <path id="XMLID_26_" class="cls-1" d="M23.48,22.2H12.2a.6.6,0,0,1,0-1.2H23.48a.6.6,0,1,1,0,1.2Z" transform="translate(-11.6 -21)"/>
    </g>
  </g>
</svg>
