<?xml version="1.0" encoding="utf-8"?>
<!-- Generator: Adobe Illustrator 19.0.0, SVG Export Plug-In . SVG Version: 6.00 Build 0)  -->
<svg version="1.1" id="Capa_1" xmlns="http://www.w3.org/2000/svg" xmlns:xlink="http://www.w3.org/1999/xlink" x="0px" y="0px"
	 viewBox="0 0 850.4 850.4" style="enable-background:new 0 0 850.4 850.4;" xml:space="preserve">
<style type="text/css">
	.st0{fill:#FFFFFF;stroke:#000000;stroke-width:20;stroke-miterlimit:10;}
	.st1{fill:#FFFFFF;}
	.st2{fill:none;stroke:#000000;stroke-width:5;stroke-linecap:round;stroke-miterlimit:10;}
	.st3{fill:none;stroke:#000000;stroke-width:5;stroke-linecap:round;stroke-miterlimit:10;stroke-dasharray:6.2443,6.2443;}
	.st4{fill:none;stroke:#000000;stroke-width:5;stroke-linecap:round;stroke-miterlimit:10;stroke-dasharray:5.8876,5.8876;}
	.st5{fill:none;stroke:#000000;stroke-width:5;stroke-linecap:round;stroke-miterlimit:10;stroke-dasharray:6.1079,6.1079;}
	.st6{fill:none;stroke:#000000;stroke-width:5;stroke-linecap:round;stroke-miterlimit:10;stroke-dasharray:5.9103,5.9103;}
	.st7{fill:none;stroke:#000000;stroke-width:5;stroke-linecap:round;stroke-miterlimit:10;stroke-dasharray:6.003,6.003;}
	.st8{fill:none;stroke:#000000;stroke-width:5;stroke-linecap:round;stroke-miterlimit:10;stroke-dasharray:5.8686,5.8686;}
	.st9{fill:none;stroke:#000000;stroke-width:3;stroke-linecap:round;stroke-miterlimit:10;}
	.st10{fill:none;stroke:#000000;stroke-width:3;stroke-linecap:round;stroke-miterlimit:10;stroke-dasharray:5.7055,5.7055;}
	.st11{fill:none;stroke:#000000;stroke-width:3;stroke-linecap:round;stroke-miterlimit:10;stroke-dasharray:6.0247,6.0247;}
	.st12{fill:none;stroke:#000000;stroke-width:3;stroke-linecap:round;stroke-miterlimit:10;stroke-dasharray:6.0954,6.0954;}
	.st13{fill:none;stroke:#000000;stroke-width:3;stroke-linecap:round;stroke-miterlimit:10;stroke-dasharray:6.0667,6.0667;}
	.st14{fill:none;stroke:#000000;stroke-width:3;stroke-linecap:round;stroke-miterlimit:10;stroke-dasharray:5.9878,5.9878;}
	.st15{fill:none;stroke:#000000;stroke-width:3;stroke-linecap:round;stroke-miterlimit:10;stroke-dasharray:6.1674,6.1674;}
	.st16{stroke:#000000;stroke-miterlimit:10;}
</style>
<path class="st0" d="M672.9,152.2l-124.6-21.8c0,0-26.4,82.8-38,102c-11.7,19.3-44.6,62.6-78.2,65.7c-33.5,3.1-38.5,3.6-38.5,3.6
	s-36.4,87-49.3,113.8c-12.9,26.8-46.2,75-152.3,207.7L437,783.1l303-455.5c0,0-52.9-32.9-69.1-51.6c-6.7-7.7-39.6-23-4.9-103.2
	L672.9,152.2z"/>
<g>
	<path class="st1" d="M638.8,173.3L565.3,160c0,0-32.9,84-43.4,101.3c-10.6,17.3-43.4,58.3-70.9,62.8c-27.6,4.5-40-0.1-40-0.1
		s-29.3,78.2-41.3,102.1c-12,23.9-41.8,67.3-135.6,187.7l197.5,130.1l274-408.9c0,0-49.5-31.6-61.7-46.9c-5-6.3-29.9-22-13.9-90.4
		L638.8,173.3z"/>
	<g>
		<polyline class="st2" points="637.8,176.1 638.8,173.3 635.9,172.8 		"/>
		<line class="st3" x1="629.7" y1="171.7" x2="571.4" y2="161.1"/>
		<path class="st2" d="M568.3,160.5l-3-0.5c0,0-0.4,1-1.1,2.8"/>
		<path class="st4" d="M562.1,168.3c-8.6,21.6-31.7,79.1-40.2,93.1c-10.6,17.3-43.4,58.3-70.9,62.8c-16.8,2.7-28,2.1-34.2,1.2"/>
		<path class="st2" d="M413.9,324.8c-1.9-0.4-2.9-0.8-2.9-0.8s-0.4,1-1.1,2.8"/>
		<path class="st5" d="M407.8,332.5c-7.9,20.9-28.5,74.5-38.1,93.6c-11.8,23.5-41,66.1-131.9,182.9"/>
		<path class="st2" d="M235.9,611.4c-0.6,0.8-1.2,1.6-1.8,2.4l2.5,1.6"/>
		<line class="st6" x1="241.5" y1="618.7" x2="426.6" y2="740.6"/>
		<polyline class="st2" points="429.1,742.2 431.6,743.9 433.3,741.4 		"/>
		<line class="st7" x1="436.6" y1="736.4" x2="702.3" y2="339.9"/>
		<path class="st2" d="M704,337.4l1.7-2.5c0,0-0.9-0.6-2.5-1.6"/>
		<path class="st8" d="M698.2,330.1c-14.3-9.5-45-30.4-54.3-42.1c-5-6.3-29.9-22-13.9-90.4l6.8-18.7"/>
	</g>
</g>
<path class="st1" d="M111.6,725l-4.8-525.1c0,0,52.5,2.2,71.9-3.3c8-2.3,60.6-3.7,72.6-72.9l6.6-33.1l86.5,36
	c0,0-19.6,78.6-20.3,96.7c-0.6,18.1,0.5,79,23.4,105.7C365.3,349.8,385,363,385,363s-21.9,99-20.8,138.1
	c1.5,57.6-0.8,87.9,12.5,223.9H111.6z"/>
<g>
	<g>
		<path class="st1" d="M265.9,108l62.5,28.6c0,0-15.9,58.5-19.5,106.1C305,294,326.7,321,335,338c11.7,23.9,29.6,32.1,29.6,32.1
			s-12.2,77.8-16.4,104.1c-3.1,19.9-0.6,76.7,8.6,235.6l-230.4-4l-5.8-491c0,0,54.8,2.3,75.2-2.7c8.4-2.1,52.5-12.2,66.5-82.7
			L265.9,108z"/>
		<g>
			<polyline class="st9" points="265.4,111 265.9,108 268.6,109.3 			"/>
			<line class="st10" x1="273.8" y1="111.7" x2="323.1" y2="134.2"/>
			<path class="st9" d="M325.7,135.4l2.7,1.2c0,0-0.3,1-0.8,2.9"/>
			<path class="st11" d="M326.2,145.4c-4.5,18.1-14.5,60.9-17.3,97.3C305,294,326.7,321,335,338c7.8,15.9,18.3,24.8,24.5,29.1"/>
			<path class="st9" d="M362,368.7c1.6,1,2.6,1.4,2.6,1.4s-0.2,1.1-0.5,3"/>
			<path class="st12" d="M363.2,379.1c-3.3,21.2-11.7,74.3-15,95.1c-3.1,19.7-0.7,75.2,8.2,229.5"/>
			<path class="st9" d="M356.7,706.8c0.1,1,0.1,2,0.2,3l-3-0.1"/>
			<line class="st13" x1="347.8" y1="709.6" x2="132.4" y2="705.9"/>
			<polyline class="st9" points="129.4,705.9 126.4,705.8 126.4,702.8 			"/>
			<line class="st14" x1="126.3" y1="696.8" x2="120.7" y2="220.8"/>
			<path class="st9" d="M120.6,217.9l0-3c0,0,1.1,0,3,0.1"/>
			<path class="st15" d="M129.8,215.1c16.5,0.4,50.8,0.7,66.1-3c8.4-2.1,52.5-12.2,66.5-82.7l2.6-15.4"/>
		</g>
	</g>
	<path class="st16" d="M383.2,478.6c4-30.3,21.8-126.2,21.8-126.2s-4.1-3.1-31.6-24.7c-27.5-21.5-31.6-77.3-30.8-100.4
		c0.8-23.1,25-109.2,25-109.2L244.4,67l-3.6,21.8c-15.4,88.5-52.6,86.8-63.1,88.3c-30.3,4.4-89.8,3.7-89.8,3.7l4.9,562.8h304.9
		C380.8,570.5,379.1,508.9,383.2,478.6z M111.6,724.5l-4.8-524.8c0,0,52.5,2.4,71.9-3.1c8-2.3,60.6-3.6,72.6-72.9l6.6-33l86.5,36
		c0,0-19.6,78.6-20.3,96.7c-0.6,18.1,0.5,79,23.4,105.8C365.3,349.8,385,363,385,363s-21.9,98.8-20.8,137.8
		c1.5,57.6-0.8,87.6,12.5,223.6H111.6z"/>
</g>
</svg>
