<svg xmlns="http://www.w3.org/2000/svg" viewBox="9399.5 682.338 25 33.132">
  <defs>
    <style>
      .cls-1 {
        fill: #00679f;
        stroke: #00679f;
      }

      .cls-2 {
        fill: #fff;
      }
    </style>
  </defs>
  <g id="star" transform="translate(9379 669.838)">
    <g id="Group_992" data-name="Group 992" transform="translate(21 13)">
      <path id="Path_164" data-name="Path 164" class="cls-1" d="M21,44.655l12-8.648,12,8.648V13H21Z" transform="translate(-21 -13)"/>
      <path id="Path_168" data-name="Path 168" class="cls-2" d="M41.531,38.8,44.179,40.2a.954.954,0,0,0,.993-.083.979.979,0,0,0,.372-.91l-.5-2.979c0-.041,0-.083.041-.083l2.152-2.11a1.009,1.009,0,0,0,.248-.952.949.949,0,0,0-.745-.621l-2.979-.414a.144.144,0,0,1-.083-.041l-1.366-2.772h0a.906.906,0,0,0-1.655,0l-1.324,2.69c0,.041-.041.041-.083.041l-2.979.414a.844.844,0,0,0-.745.621.917.917,0,0,0,.248.952l2.152,2.11c.041.041.041.041.041.083l-.5,2.979a.847.847,0,0,0,.29.993.91.91,0,0,0,.538.166.943.943,0,0,0,.455-.124l2.648-1.407C41.49,38.8,41.49,38.8,41.531,38.8Z" transform="translate(-29.489 -23.203)"/>
    </g>
  </g>
</svg>
