<?xml version="1.0" encoding="utf-8"?>
<!-- Generator: Adobe Illustrator 19.0.0, SVG Export Plug-In . SVG Version: 6.00 Build 0)  -->
<svg version="1.1" id="Capa_1" xmlns="http://www.w3.org/2000/svg" xmlns:xlink="http://www.w3.org/1999/xlink" x="0px" y="0px"
	 viewBox="0 0 644 750" style="enable-background:new 0 0 644 750;" xml:space="preserve">
<g>
	<path d="M458.3,121.4c-1.1-8.7-1.4-19.6-6.7-25.1c-16.6-17.6-35.3-33.4-53.5-49.5c-2.4-2.2-6.5-3.5-9.8-3.5
		c-39.7-0.2-79.4-0.2-119.1,0c-3.3,0-7.2,1.3-9.7,3.4c-17.7,15.2-35.3,30.5-52.5,46.3c-3.6,3.3-6.5,8.4-7.6,13.2
		c-6.4,28.1-7.9,56.7-0.8,84.8c9.9,38.9,33.5,70.1,59,100c4.1,4.9,6.9,1.2,9.7-1.7c11.6-12.4,23.2-24.8,34.8-37.2
		c9.3-9.9,18.6-19.6,28.2-29.7c20.2,24.7,39.5,48.4,59.3,72.6C438.6,251.9,466,182.2,458.3,121.4z M376,170.7
		c-14.5,16.8-29.4,33.3-45,51c-9-9.9-17.4-19-25.5-28.3c-10.2-11.7-19.9-23.9-30.2-35.5c-19.7-22.1-22.1-48.8-20.7-76.5
		c0.3-6.5,1.6-13,2.4-19.5c0.8-0.3,1.6-0.5,2.4-0.8c6.2,11.3,12,22.8,18.7,33.8c1.8,2.9,6.2,5.9,9.5,6c29.6,0.5,59.3,0.3,89.8,0.3
		c4.7-14.6,9.4-29.2,14.5-45.3C406.7,100.5,409.7,131.5,376,170.7z"/>
	<path d="M346,288.6c-0.1,7.1-7.7,14.7-14.8,14.7c-8,0-15.2-7.4-14.9-15.3c0.3-7,8.4-14.9,15-14.6
		C338.4,273.8,346.1,281.8,346,288.6z"/>
	<path d="M346,425.6c-0.1,7.1-7.7,14.7-14.8,14.7c-8,0-15.2-7.4-14.9-15.3c0.3-7,8.4-14.9,15-14.6
		C338.4,410.8,346.1,418.8,346,425.6z"/>
	<path d="M343.2,577.7c-0.1,7.1-7.7,14.7-14.8,14.7c-8,0-15.2-7.4-14.9-15.3c0.3-7,8.4-14.9,15-14.6
		C335.6,562.9,343.3,570.9,343.2,577.7z"/>
	<g>
		<path d="M104,633.1v-479c0-13.2,10.4-24.1,23.6-24.1H180V97h-56.1C94.2,97,70,120.7,70,150.5v487.5c0,29.8,24.2,53.9,53.9,53.9
			H240v-35H127.6C114.4,657,104,646.3,104,633.1z"/>
		<path d="M531.4,97H483v33h44.1c13.2,0,23.9,11,23.9,24.1v479c0,13.2-10.7,23.9-23.9,23.9H300.2l0.5-371.3L264,332.1V692h36.2l0,0
			h231.2c29.8,0,53.6-24.2,53.6-53.9V150.5C585,120.7,561.2,97,531.4,97z"/>
	</g>
</g>
</svg>
