<svg xmlns="http://www.w3.org/2000/svg" viewBox="8234 1202 44 44">
  <defs>
    <style>
      .cls-1 {
        fill: none;
      }
    </style>
  </defs>
  <g id="CUIDADO1" transform="translate(7960)">
    <g id="Group_1031" data-name="Group 1031" transform="translate(-287.475 -29.588)">
      <g id="Group_208" data-name="Group 208" transform="translate(566.474 1242.921)">
        <path id="Path_99" data-name="Path 99" d="M29.874,35.495H5.164a.548.548,0,0,1-.521-.474L.01,8.485A.586.586,0,0,1,.43,7.8a.541.541,0,0,1,.622.464L5.6,34.325H29.436l4.55-26.062a.534.534,0,0,1,.622-.463.585.585,0,0,1,.42.685L30.4,35.021A.548.548,0,0,1,29.874,35.495Z" transform="translate(0 -7.79)"/>
        <path id="Path_100" data-name="Path 100" d="M25.489,14.861a7.4,7.4,0,0,1-4.265-1.237,6.489,6.489,0,0,0-3.77-1.1,6.484,6.484,0,0,0-3.768,1.1,10.122,10.122,0,0,1-1.6.8,7.439,7.439,0,0,1-2.663.435A7.4,7.4,0,0,1,5.16,13.624a6.484,6.484,0,0,0-3.768-1.1.587.587,0,0,1,0-1.169A7.4,7.4,0,0,1,5.656,12.59a6.484,6.484,0,0,0,3.768,1.1,6.531,6.531,0,0,0,2.323-.373,9.1,9.1,0,0,0,1.442-.727,7.392,7.392,0,0,1,4.265-1.238A7.4,7.4,0,0,1,21.72,12.59a6.488,6.488,0,0,0,3.769,1.1c.268,0,.516-.011.749-.03a6.489,6.489,0,0,0,3.021-1.071,7.407,7.407,0,0,1,4.267-1.237.587.587,0,0,1,0,1.169,6.486,6.486,0,0,0-3.77,1.1,7.423,7.423,0,0,1-3.432,1.2C26.063,14.849,25.787,14.861,25.489,14.861Z" transform="translate(0.053 -7.186)"/>
      </g>
      <g id="Group_209" data-name="Group 209" transform="translate(573.751 1235.588)">
        <path id="Path_101" data-name="Path 101" d="M9.043,17.063a2.085,2.085,0,0,1-1.557-.7,2.742,2.742,0,0,1,.086-3.6l7.106-7.827a.5.5,0,0,1,.751,0,.628.628,0,0,1,0,.827L8.323,13.589a1.487,1.487,0,0,0-.086,1.95,1.179,1.179,0,0,0,1.77-.095l4.621-5.09a.5.5,0,0,1,.751,0,.628.628,0,0,1,0,.827l-4.621,5.09A2.32,2.32,0,0,1,9.043,17.063Z" transform="translate(-6.853 -0.97)"/>
        <path id="Path_102" data-name="Path 102" d="M14.817,6.482H13.03A2.406,2.406,0,0,1,10.713,4,2.773,2.773,0,0,1,13.7,1.52h6.438a.56.56,0,0,1,.531.585.56.56,0,0,1-.531.585H13.7c-1.027,0-1.926.612-1.926,1.311a1.285,1.285,0,0,0,1.256,1.311h1.786a.587.587,0,0,1,0,1.169Z" transform="translate(-6.615 -1.52)"/>
        <path id="Path_103" data-name="Path 103" d="M10.587,19.878a2.085,2.085,0,0,1-1.557-.7,2.743,2.743,0,0,1,.085-3.6l5.665-6.24a.5.5,0,0,1,.751,0,.628.628,0,0,1,0,.827L9.866,16.4a1.488,1.488,0,0,0-.085,1.951,1.178,1.178,0,0,0,1.77-.095l5.665-6.24a.5.5,0,0,1,.751,0,.628.628,0,0,1,0,.827L12.3,19.085A2.32,2.32,0,0,1,10.587,19.878Z" transform="translate(-6.758 -0.225)"/>
        <path id="Path_104" data-name="Path 104" d="M13.631,21.293a2.086,2.086,0,0,1-1.558-.7,2.738,2.738,0,0,1,.086-3.6l4.869-5.363a.5.5,0,0,1,.751,0,.628.628,0,0,1,0,.827l-4.869,5.363a1.486,1.486,0,0,0-.086,1.948,1.178,1.178,0,0,0,1.77-.094l4.869-5.363a.5.5,0,0,1,.751,0,.628.628,0,0,1,0,.827L15.345,20.5A2.323,2.323,0,0,1,13.631,21.293Z" transform="translate(-6.57 0.164)"/>
        <path id="Path_105" data-name="Path 105" d="M17.047,22.326a2.075,2.075,0,0,1-1.555-.7,2.738,2.738,0,0,1,.086-3.6l3.675-4.048a.5.5,0,0,1,.751,0,.628.628,0,0,1,0,.827l-3.675,4.048a1.486,1.486,0,0,0-.086,1.948,1.178,1.178,0,0,0,1.77-.094l6.463-7.119a.5.5,0,0,1,.751,0,.628.628,0,0,1,0,.827l-6.463,7.119a2.329,2.329,0,0,1-1.635.791Z" transform="translate(-6.359 0.496)"/>
        <path id="Path_106" data-name="Path 106" d="M24.338,16.877a.509.509,0,0,1-.376-.171.628.628,0,0,1,0-.827L26.307,13.3a2.279,2.279,0,0,0,0-3L19.262,2.538a.642.642,0,0,1-.008-.836A.492.492,0,0,1,20,1.694L27.056,9.47a3.535,3.535,0,0,1,0,4.653l-2.344,2.582A.5.5,0,0,1,24.338,16.877Z" transform="translate(-6.097 -1.519)"/>
      </g>
    </g>
    <rect id="Rectangle_279" data-name="Rectangle 279" class="cls-1" width="44" height="44" transform="translate(274 1202)"/>
  </g>
</svg>
