<svg xmlns="http://www.w3.org/2000/svg" viewBox="9642.956 486.365 30 30">
  <defs>
    <style>
      .cls-1 {
        fill: #6e6e6e;
      }
    </style>
  </defs>
  <g id="icon-p1" transform="translate(9642.956 486.365)">
    <g id="XMLID_41_" transform="translate(0 0)">
      <g id="XMLID_42_" transform="translate(0 0)">
        <g id="XMLID_43_">
          <path id="XMLID_64_" class="cls-1" d="M40.406,12.839l4.133.251h.051l.357-.351v-.05L34.08,2h-.051l-.357.351.255,4.114Zm4.133,1.3h-.051l-4.541-.3L32.906,6.92,32.6,2.455a1.129,1.129,0,0,1,.306-.8l.357-.351a1.135,1.135,0,0,1,.765-.3h0a1.048,1.048,0,0,1,.765.3L45.661,11.987a1.078,1.078,0,0,1,0,1.505l-.357.351a1.3,1.3,0,0,1-.765.3Z" transform="translate(-15.967 -0.498)"/>
          <path id="XMLID_61_" class="cls-1" d="M1.429,34.6c-.051,0-.051.05,0,0l-.408.351V35L11.888,45.69h.051l.357-.351-.255-4.114L5.561,34.9l-4.133-.3h0m10.51,12.14a1.048,1.048,0,0,1-.765-.3L.306,35.757a1.078,1.078,0,0,1,0-1.505L.663,33.9a1.17,1.17,0,0,1,.816-.3l4.541.3,7.041,6.923.306,4.465a1.129,1.129,0,0,1-.306.8l-.357.351a1.135,1.135,0,0,1-.765.3" transform="translate(0 -16.744)"/>
          <path id="XMLID_60_" class="cls-1" d="M35.435,19.007,28.7,17.8l.2-1L35.639,18Z" transform="translate(-14.057 -8.372)"/>
          <path id="XMLID_59_" class="cls-1" d="M37.253,25.709,29.6,24l.2-1,7.653,1.706Z" transform="translate(-14.498 -11.462)"/>
          <path id="XMLID_58_" class="cls-1" d="M25.194,34.665,15.5,31.053l.357-.953,9.694,3.612Z" transform="translate(-7.592 -15)"/>
          <path id="XMLID_57_" class="cls-1" d="M21.092,39.264,11.5,36.053l.306-.953L21.4,38.311Z" transform="translate(-5.633 -17.491)"/>
          <path id="XMLID_53_" class="cls-1" d="M7.124,5.8ZM8.91,5.553a1.868,1.868,0,0,0-1.429.6,2.2,2.2,0,0,0-.612,1.4,1.883,1.883,0,0,0,.612,1.4l16.735,13.6L10.339,6.105A2.022,2.022,0,0,0,8.91,5.553ZM28.043,26.874a.553.553,0,0,1-.306-.1L6.818,9.767A2.974,2.974,0,0,1,5.9,7.61,2.786,2.786,0,0,1,6.818,5.5a3.08,3.08,0,0,1,2.143-.9,2.879,2.879,0,0,1,2.143.9L28.451,26.122a.464.464,0,0,1-.051.652.958.958,0,0,1-.357.1Z" transform="translate(-2.89 -2.292)"/>
          <path id="XMLID_52_" class="cls-1" d="M12.739,12.008a.467.467,0,0,1-.357-.151l-1.429-1.4a.479.479,0,0,1,0-.7.5.5,0,0,1,.714,0l1.429,1.4a.479.479,0,0,1,0,.7.467.467,0,0,1-.357.151" transform="translate(-5.29 -4.784)"/>
          <path id="XMLID_51_" class="cls-1" d="M8.861,18.676a2.879,2.879,0,0,1-2.143-.9A2.98,2.98,0,0,1,5.8,15.666a2.786,2.786,0,0,1,.918-2.107l2.5-2.508a.5.5,0,0,1,.714,0,.479.479,0,0,1,0,.7l-2.5,2.508a1.965,1.965,0,0,0-.612,1.4,1.883,1.883,0,0,0,.612,1.4,2.032,2.032,0,0,0,1.429.6,1.947,1.947,0,0,0,1.429-.6l1.071-1.054a.5.5,0,0,1,.714,0,.479.479,0,0,1,0,.7L11,17.823a3.034,3.034,0,0,1-2.143.853" transform="translate(-2.841 -5.432)"/>
          <path id="XMLID_50_" class="cls-1" d="M16.283,4.716a.467.467,0,0,1-.408-.2.479.479,0,0,1,.051-.7,2.269,2.269,0,0,0,.969-1.4A2.308,2.308,0,0,0,16.028.853a.479.479,0,0,1,0-.7.5.5,0,0,1,.714,0,3.074,3.074,0,0,1,1.173,2.308A2.888,2.888,0,0,1,16.59,4.565a.444.444,0,0,1-.306.151" transform="translate(-7.712 0)"/>
          <path id="XMLID_47_" class="cls-1" d="M26.378,15.666l5.459,6.472,3.929-3.863L29.694,12.4Zm5.357,7.977L25,15.615,29.694,11l7.449,7.324Z" transform="translate(-12.245 -5.482)"/>
          <path id="XMLID_44_" class="cls-1" d="M11.429,29.469l6.02,5.92L22.5,30.422l-6.582-5.368Zm6.02,7.375L10,29.469,15.867,23.7l8.163,6.672Z" transform="translate(-4.898 -11.81)"/>
        </g>
      </g>
    </g>
  </g>
</svg>
