<svg xmlns="http://www.w3.org/2000/svg" viewBox="9683 486.461 30 30">
  <defs>
    <style>
      .cls-1 {
        fill: #6e6e6e;
      }
    </style>
  </defs>
  <g id="icon-p2" transform="translate(9683 486.461)">
    <g id="XMLID_35_" transform="translate(0 14.64)">
      <path id="XMLID_36_" class="cls-1" d="M6.726,25.66l5.536,3.24v6.42L6.726,38.56,1.19,35.32V28.84l5.536-3.18m0-1.26a.855.855,0,0,0-.417.12L.476,27.94A.78.78,0,0,0,0,28.66v6.78a1.028,1.028,0,0,0,.417.78L6.25,39.64a1.1,1.1,0,0,0,.417.12,1.1,1.1,0,0,0,.417-.12l5.833-3.42a.876.876,0,0,0,.417-.78V28.66a1.028,1.028,0,0,0-.417-.78L7.143,24.52a1.1,1.1,0,0,0-.417-.12Z" transform="translate(0 -24.4)"/>
    </g>
    <g id="XMLID_31_" transform="translate(16.667 14.64)">
      <path id="XMLID_32_" class="cls-1" d="M34.667,25.66,40.2,28.9v6.42l-5.536,3.24L29.19,35.32V28.84l5.476-3.18m0-1.26a.855.855,0,0,0-.417.12l-5.833,3.42a.729.729,0,0,0-.417.72v6.78a1.028,1.028,0,0,0,.417.78l5.833,3.42a.783.783,0,0,0,.833,0l5.833-3.42a.876.876,0,0,0,.417-.78V28.66a1.028,1.028,0,0,0-.417-.78l-5.774-3.36a1.114,1.114,0,0,0-.476-.12Z" transform="translate(-28 -24.4)"/>
    </g>
    <g id="XMLID_27_" transform="translate(8.333)">
      <path id="XMLID_28_" class="cls-1" d="M20.667,1.26,26.2,4.5v6.42l-5.536,3.24-5.536-3.24V4.44l5.536-3.18m0-1.26a.855.855,0,0,0-.417.12L14.417,3.54A.876.876,0,0,0,14,4.32V11.1a1.028,1.028,0,0,0,.417.78L20.25,15.3a.783.783,0,0,0,.833,0l5.833-3.42a.876.876,0,0,0,.417-.78V4.26a1.028,1.028,0,0,0-.417-.78L21.143.12A1.392,1.392,0,0,0,20.667,0Z" transform="translate(-14)"/>
    </g>
  </g>
</svg>
