<?xml version="1.0" encoding="utf-8"?>
<!-- Generator: Adobe Illustrator 19.0.0, SVG Export Plug-In . SVG Version: 6.00 Build 0)  -->
<svg version="1.1" id="Capa_1" xmlns="http://www.w3.org/2000/svg" xmlns:xlink="http://www.w3.org/1999/xlink" x="0px" y="0px"
	 viewBox="0 0 784 745" style="enable-background:new 0 0 784 745;" xml:space="preserve">
<style type="text/css">
	.st0{fill:#FFFFFF;stroke:#000000;stroke-width:30;stroke-linecap:round;stroke-miterlimit:10;}
	.st1{fill:none;stroke:#000000;stroke-width:10;stroke-linecap:square;stroke-miterlimit:10;}
</style>
<g>
	<path class="st0" d="M190.6,95.6l-30.5,95.8c0,0,49.2,42.9,214.8,33.7c165.6-9.2,254.5-11.3,256.1,16.1c0.2,3.5,0.8,12.5,0.7,13.6
		c-0.8,18-56.4,34.8-158.6,43.9c-138,12.3-292.4,39.4-331.6,55.2c-19.5,7.9-39.5,18.5-46.1,30.6c-12.8,23.5-6.8,78.2-9.6,106.7
		c-2.6,26.1,0.1,105,0.1,105s6.9,67.5,144.9,42.9c138-24.5,202.4-61.3,242.3-67.5c39.9-6.1,125.8-21.5,168.7,21.5l21.5,21.5
		l49.1-76.7c0,0-52.1-70.5-165.6-67.5c-113.5,3.1-116.6,24.5-230,52.1c0,0-93.3,34.3-156.4,30.7c-21.9-1.3-73.9,0.1-75.4-43.1
		c0,0,0.3-16.7,1.1-20.1c5.9-27.2,59.8-44.9,130.4-64.9c70.5-19.9,97.4-17.6,201.7-25.7c104.3-8.1,195.8-13.2,210.9-64.4
		c7.7-26.2,1.2-109.3,1.2-109.3s2.2-56.5-10.6-71.3c-11.4-13.2-44.2-16-59.9-18c-62.1-8.1-221.8-1.3-295.4-6.5
		C243.4,128.5,223.6,120.6,190.6,95.6z"/>
	<g>
		<line class="st1" x1="127.8" y1="628.4" x2="136.8" y2="586.9"/>
		<line class="st1" x1="237.7" y1="626.7" x2="233.9" y2="585"/>
		<line class="st1" x1="329" y1="555" x2="345.5" y2="601.7"/>
		<line class="st1" x1="431.2" y1="524.1" x2="438.5" y2="571.3"/>
		<line class="st1" x1="534.5" y1="506.1" x2="536.7" y2="554.8"/>
		<line class="st1" x1="644.9" y1="524.1" x2="622.7" y2="569.2"/>
		<line class="st1" x1="217.4" y1="207.7" x2="229.8" y2="166.8"/>
		<line class="st1" x1="318.8" y1="173.8" x2="318.8" y2="218.8"/>
		<line class="st1" x1="418" y1="166.8" x2="419" y2="215.4"/>
		<line class="st1" x1="526.3" y1="168.3" x2="521.2" y2="213.2"/>
	</g>
</g>
</svg>
